<?xml version="1.0" encoding="UTF-8" standalone="no"?>
<!-- Created with Inkscape (http://www.inkscape.org/) -->

<svg
   xmlns:dc="http://purl.org/dc/elements/1.1/"
   xmlns:cc="http://creativecommons.org/ns#"
   xmlns:rdf="http://www.w3.org/1999/02/22-rdf-syntax-ns#"
   xmlns:svg="http://www.w3.org/2000/svg"
   xmlns="http://www.w3.org/2000/svg"
   xmlns:sodipodi="http://sodipodi.sourceforge.net/DTD/sodipodi-0.dtd"
   xmlns:inkscape="http://www.inkscape.org/namespaces/inkscape"
   width="67.73333mm"
   height="67.73333mm"
   viewBox="0 0 239.99999 239.99999"
   id="svg2"
   version="1.1"
   inkscape:version="0.91 r13725"
   sodipodi:docname="logo_1.2.svg"
   inkscape:export-filename="/home/scott/Documents/git/mopify/logo/logo_1.2.png"
   inkscape:export-xdpi="90"
   inkscape:export-ydpi="90">
  <defs
     id="defs4" />
  <sodipodi:namedview
     id="base"
     pagecolor="#ffffff"
     bordercolor="#666666"
     borderopacity="1.0"
     inkscape:pageopacity="0.0"
     inkscape:pageshadow="2"
     inkscape:zoom="2.8284271"
     inkscape:cx="110.14045"
     inkscape:cy="126.19822"
     inkscape:document-units="px"
     inkscape:current-layer="layer2"
     showgrid="true"
     showguides="true"
     inkscape:window-width="1855"
     inkscape:window-height="1056"
     inkscape:window-x="65"
     inkscape:window-y="24"
     inkscape:window-maximized="1"
     inkscape:object-nodes="true"
     fit-margin-top="0"
     fit-margin-left="0"
     fit-margin-right="0"
     fit-margin-bottom="0"
     inkscape:snap-others="false"
     inkscape:snap-nodes="true"
     inkscape:snap-bbox="true">
    <inkscape:grid
       type="xygrid"
       id="grid3364"
       originx="-120"
       originy="-610.00002" />
  </sodipodi:namedview>
  <metadata
     id="metadata7">
    <rdf:RDF>
      <cc:Work
         rdf:about="">
        <dc:format>image/svg+xml</dc:format>
        <dc:type
           rdf:resource="http://purl.org/dc/dcmitype/StillImage" />
        <dc:title></dc:title>
      </cc:Work>
    </rdf:RDF>
  </metadata>
  <g
     inkscape:groupmode="layer"
     id="layer2"
     inkscape:label="bg"
     transform="translate(-120,-202.3622)">
    <rect
       style="display:inline;fill:#808080;fill-opacity:0;stroke:none"
       id="rect4297"
       width="240"
       height="240"
       x="120"
       y="202.3622" />
    <circle
       style="fill:#808080;fill-opacity:1;stroke:none;stroke-width:0.5;stroke-miterlimit:4;stroke-dasharray:none;stroke-opacity:1"
       id="path4448"
       cx="240"
       cy="322.36218"
       r="120" />
  </g>
  <g
     inkscape:label="Layer 1"
     inkscape:groupmode="layer"
     id="layer1"
     style="display:inline"
     transform="translate(-120,-202.3622)">
    <path
       id="path3412"
       style="fill:#a05a2c;fill-opacity:1;fill-rule:evenodd;stroke:none;stroke-width:1px;stroke-linecap:butt;stroke-linejoin:miter;stroke-opacity:1"
       d="m 221.31678,386.017 c 2.44949,1.41421 -0.0505,5.74433 -2.5,4.33012 l -17.32051,-10 c -2.44949,-1.41421 0.0445,-5.7478 2.5,-4.33012 z m -12.99038,-7.5 85,-147.22432 c 2.91547,-5.04975 11.57572,-0.0497 8.66025,5 l -85,147.22432"
       inkscape:connector-curvature="0" />
    <path
       style="fill:#ffffff;fill-opacity:1;fill-rule:evenodd;stroke:none;stroke-width:1px;stroke-linecap:butt;stroke-linejoin:miter;stroke-opacity:1"
       d="m 201,379.3622 c -3.39434,2.58278 -8.08908,6.04883 -10.37571,9.74008 -2.05577,2.71487 -4.25488,5.63267 -4.40857,9.17923 -0.28553,2.87739 0.0595,5.86149 -1.00164,8.61923 -0.82982,3.22694 -1.39061,6.51891 -2.1298,9.76432 -0.40916,2.63998 2.00324,4.90016 4.60273,4.5755 4.73657,-0.15699 9.47928,-0.002 14.22204,-0.0205 3.57958,-0.0313 7.18178,0.0774 10.74427,-0.2633 C 218,420.3622 224.19174,422.00027 224,419.3622 c 0.69054,-4.06796 -8.80765,-11.6204 -8.42369,-15.68546 -0.055,-4.39257 0.9962,-8.18963 2.42369,-12.31454 l 1,-1 0,0"
       id="path3487"
       inkscape:connector-curvature="0"
       sodipodi:nodetypes="ccccccccccccc" />
    <path
       style="fill:none;fill-rule:evenodd;stroke:#2e2d32;stroke-width:0.5;stroke-linecap:butt;stroke-linejoin:miter;stroke-miterlimit:4;stroke-dasharray:none;stroke-opacity:1"
       d="m 202,382.36219 c -2,3 -6.92935,6.9543 -7.63627,9.75101 -1.84657,2.73975 -3.28703,5.82617 -3.62356,9.14399 -0.41143,2.4514 -0.32993,4.96881 -0.95516,7.38742 -0.3027,1.96548 -0.50602,3.94728 -0.90333,5.89741 -0.0353,1.32775 -0.20293,2.8073 0.11832,3.8202"
       id="path4393"
       inkscape:connector-curvature="0"
       sodipodi:nodetypes="cccccc" />
    <path
       style="fill:none;fill-rule:evenodd;stroke:#2e2d32;stroke-width:0.5;stroke-linecap:butt;stroke-linejoin:miter;stroke-miterlimit:4;stroke-dasharray:none;stroke-opacity:1"
       d="m 205,384.36219 c -2,3 -6.18355,8.81467 -7.62746,12.76734 -0.92018,2.81174 -2.30766,6.17589 -2.12227,9.12641 0.12544,2.46068 0.68583,4.4884 0.54472,6.93312 -0.0686,1.51748 0.20724,3.0216 0.58115,4.48102 0.0389,0.24752 0.29183,0.9343 0.62386,1.69211"
       id="path4395"
       inkscape:connector-curvature="0"
       sodipodi:nodetypes="cccccc" />
    <path
       style="fill:none;fill-rule:evenodd;stroke:#2e2d32;stroke-width:0.5;stroke-linecap:butt;stroke-linejoin:miter;stroke-miterlimit:4;stroke-dasharray:none;stroke-opacity:1"
       d="m 211,388.36219 c -1.72941,2.55292 -4.65595,7.25873 -4.94032,10.20094 -0.61614,2.65396 -0.9169,5.37545 -0.81464,8.09795 -0.22223,2.10803 1.2054,3.70253 1.75496,5.70111 1.14688,1.94859 1.22559,2.58829 2.43815,3.90275 1.59369,1.72763 4.56185,2.09725 5.25249,3.09725"
       id="path4397"
       inkscape:connector-curvature="0"
       sodipodi:nodetypes="ccccsc" />
    <path
       style="fill:none;fill-rule:evenodd;stroke:#2e2d32;stroke-width:0.5;stroke-linecap:butt;stroke-linejoin:miter;stroke-miterlimit:4;stroke-dasharray:none;stroke-opacity:1"
       d="m 215,390.36219 c -2.04239,2.02698 -2.84596,5.20157 -3.19669,6.56413 -0.40991,1.40909 -1.70602,8.40283 -1.50374,10.52822 0.14226,1.67766 2.82434,4.14321 4.78253,5.57977 1.85091,1.35973 2.18441,2.88689 3.9179,4.32788 1,1 1.70021,1.03091 2.00003,0.99942"
       id="path4401"
       inkscape:connector-curvature="0"
       sodipodi:nodetypes="cccccc" />
    <path
       style="fill:none;fill-rule:evenodd;stroke:#2e2d32;stroke-width:0.5;stroke-linecap:butt;stroke-linejoin:miter;stroke-miterlimit:4;stroke-dasharray:none;stroke-opacity:1"
       d="m 208,386.36219 c -2.19537,2.61867 -4.80337,8.09014 -5.91465,11.22599 -0.6439,2.46534 -1.48537,5.142 -1.74501,7.67094 -0.32294,1.24257 -0.11796,3.26471 0.22256,5.29729 0.34052,2.03258 1.2179,3.52145 1.4371,4.80578 0.14772,0.92275 2.29467,3.72384 3,4"
       id="path4403"
       inkscape:connector-curvature="0"
       sodipodi:nodetypes="cccscc" />
  </g>
</svg>
